<?xml version="1.0" encoding="UTF-8" standalone="no"?>
<!-- Created with Inkscape (http://www.inkscape.org/) -->

<svg
   xmlns:dc="http://purl.org/dc/elements/1.1/"
   xmlns:cc="http://creativecommons.org/ns#"
   xmlns:rdf="http://www.w3.org/1999/02/22-rdf-syntax-ns#"
   xmlns:svg="http://www.w3.org/2000/svg"
   xmlns="http://www.w3.org/2000/svg"
   xmlns:sodipodi="http://sodipodi.sourceforge.net/DTD/sodipodi-0.dtd"
   xmlns:inkscape="http://www.inkscape.org/namespaces/inkscape"
   version="1.1"
   id="svg2"
   xml:space="preserve"
   width="1215.801"
   height="1462.4629"
   viewBox="0 0 1215.801 1462.4629"
   sodipodi:docname="GPR_Mapping_Zero_Mean.svg"
   inkscape:version="0.92.3 (2405546, 2018-03-11)"><metadata
     id="metadata8"><rdf:RDF><cc:Work
         rdf:about=""><dc:format>image/svg+xml</dc:format><dc:type
           rdf:resource="http://purl.org/dc/dcmitype/StillImage" /><dc:title></dc:title></cc:Work></rdf:RDF></metadata><defs
     id="defs6"><clipPath
   clipPathUnits="userSpaceOnUse"
   id="clipPath20"><path
     d="M 0,0 H 915 V 1097 H 0 Z"
     id="path18"
     inkscape:connector-curvature="0" /></clipPath><clipPath
   clipPathUnits="userSpaceOnUse"
   id="clipPath38"><path
     d="M 0,0 H 915 V 1097 H 0 Z"
     id="path36"
     inkscape:connector-curvature="0" /></clipPath><clipPath
   clipPathUnits="userSpaceOnUse"
   id="clipPath56"><path
     d="M 0,0 H 915 V 1097 H 0 Z"
     id="path54"
     inkscape:connector-curvature="0" /></clipPath><clipPath
   clipPathUnits="userSpaceOnUse"
   id="clipPath74"><path
     d="M 0,0 H 915 V 1097 H 0 Z"
     id="path72"
     inkscape:connector-curvature="0" /></clipPath><clipPath
   clipPathUnits="userSpaceOnUse"
   id="clipPath92"><path
     d="M 0,0 H 915 V 1097 H 0 Z"
     id="path90"
     inkscape:connector-curvature="0" /></clipPath><clipPath
   clipPathUnits="userSpaceOnUse"
   id="clipPath110"><path
     d="M 0,0 H 915 V 1097 H 0 Z"
     id="path108"
     inkscape:connector-curvature="0" /></clipPath><clipPath
   clipPathUnits="userSpaceOnUse"
   id="clipPath128"><path
     d="M 0,0 H 915 V 1097 H 0 Z"
     id="path126"
     inkscape:connector-curvature="0" /></clipPath><clipPath
   clipPathUnits="userSpaceOnUse"
   id="clipPath146"><path
     d="M 0,0 H 915 V 1097 H 0 Z"
     id="path144"
     inkscape:connector-curvature="0" /></clipPath><clipPath
   clipPathUnits="userSpaceOnUse"
   id="clipPath164"><path
     d="M 0,0 H 915 V 1097 H 0 Z"
     id="path162"
     inkscape:connector-curvature="0" /></clipPath><clipPath
   clipPathUnits="userSpaceOnUse"
   id="clipPath190"><path
     d="M 0,0 H 915 V 1097 H 0 Z"
     id="path188"
     inkscape:connector-curvature="0" /></clipPath><clipPath
   clipPathUnits="userSpaceOnUse"
   id="clipPath220"><path
     d="M 0,0 H 915 V 1097 H 0 Z"
     id="path218"
     inkscape:connector-curvature="0" /></clipPath>








</defs><sodipodi:namedview
     pagecolor="#ffffff"
     bordercolor="#666666"
     borderopacity="1"
     objecttolerance="10"
     gridtolerance="10"
     guidetolerance="10"
     inkscape:pageopacity="0"
     inkscape:pageshadow="2"
     inkscape:window-width="1920"
     inkscape:window-height="1052"
     id="namedview4"
     showgrid="true"
     inkscape:zoom="0.45642785"
     inkscape:cx="192.57825"
     inkscape:cy="660.5124"
     inkscape:window-x="0"
     inkscape:window-y="0"
     inkscape:window-maximized="1"
     inkscape:current-layer="g10"
     fit-margin-top="0"
     fit-margin-left="0"
     fit-margin-right="0"
     fit-margin-bottom="0"><inkscape:grid
       type="xygrid"
       id="grid4911"
       units="mm" /></sodipodi:namedview><g
     id="g10"
     inkscape:groupmode="layer"
     inkscape:label="GPR_Mapping_Zero_Mean"
     transform="matrix(1.3333333,0,0,1.3333333,4.0942127e-4,4.0690103e-5)"><g
       id="g14"><g
         id="g16" /><g
         id="g30"><g
           style="opacity:0.7"
           id="g28"
           clip-path="url(#clipPath20)"><g
             id="g26"><g
               id="g24"><path
                 inkscape:connector-curvature="0"
                 id="path22"
                 style="fill:none;stroke:#edbf53;stroke-width:2.83464599;stroke-linecap:butt;stroke-linejoin:miter;stroke-miterlimit:4;stroke-dasharray:none;stroke-opacity:1"
                 d="M 765.277,577.551 605.629,809.766 765.277,301.797" /></g></g></g></g></g><g
       id="g32"><g
         id="g34" /><g
         id="g48"><g
           style="opacity:0.7"
           id="g46"
           clip-path="url(#clipPath38)"><g
             id="g44"><g
               id="g42"><path
                 inkscape:connector-curvature="0"
                 id="path40"
                 style="fill:none;stroke:#edbf53;stroke-width:2.83464599;stroke-linecap:butt;stroke-linejoin:miter;stroke-miterlimit:4;stroke-dasharray:none;stroke-opacity:1"
                 d="M 605.629,809.766 344.387,867.82 765.277,577.551" /></g></g></g></g></g><g
       id="g50"><g
         id="g52" /><g
         id="g66"><g
           style="opacity:0.7"
           id="g64"
           clip-path="url(#clipPath56)"><g
             id="g62"><g
               id="g60"><path
                 inkscape:connector-curvature="0"
                 id="path58"
                 style="fill:none;stroke:#edbf53;stroke-width:2.83464599;stroke-linecap:butt;stroke-linejoin:miter;stroke-miterlimit:4;stroke-dasharray:none;stroke-opacity:1"
                 d="M 344.387,867.82 765.277,301.797" /></g></g></g></g></g><g
       id="g68"><g
         id="g70" /><g
         id="g84"><g
           style="opacity:0.7"
           id="g82"
           clip-path="url(#clipPath74)"><g
             id="g80"><g
               id="g78"><path
                 inkscape:connector-curvature="0"
                 id="path76"
                 style="fill:none;stroke:#edbf53;stroke-width:2.83464599;stroke-linecap:butt;stroke-linejoin:miter;stroke-miterlimit:4;stroke-dasharray:none;stroke-opacity:1"
                 d="M 344.387,867.82 97.66,635.605 605.629,809.766" /></g></g></g></g></g><g
       id="g86"><g
         id="g88" /><g
         id="g102"><g
           style="opacity:0.7"
           id="g100"
           clip-path="url(#clipPath92)"><g
             id="g98"><g
               id="g96"><path
                 inkscape:connector-curvature="0"
                 id="path94"
                 style="fill:none;stroke:#edbf53;stroke-width:2.83464599;stroke-linecap:butt;stroke-linejoin:miter;stroke-miterlimit:4;stroke-dasharray:none;stroke-opacity:1"
                 d="M 779.789,577.551 97.66,635.605 765.277,301.797" /></g></g></g></g></g><g
       id="g104"><g
         id="g106" /><g
         id="g120"><g
           style="opacity:0.7"
           id="g118"
           clip-path="url(#clipPath110)"><g
             id="g116"><g
               id="g114"><path
                 inkscape:connector-curvature="0"
                 id="path112"
                 style="fill:none;stroke:#edbf53;stroke-width:2.83464599;stroke-linecap:butt;stroke-linejoin:miter;stroke-miterlimit:4;stroke-dasharray:none;stroke-opacity:1"
                 d="M 765.277,301.797 97.66,403.391 v 232.214" /></g></g></g></g></g><g
       id="g122"><g
         id="g124" /><g
         id="g138"><g
           style="opacity:0.7"
           id="g136"
           clip-path="url(#clipPath128)"><g
             id="g134"><g
               id="g132"><path
                 inkscape:connector-curvature="0"
                 id="path130"
                 style="fill:none;stroke:#edbf53;stroke-width:2.83464599;stroke-linecap:butt;stroke-linejoin:miter;stroke-miterlimit:4;stroke-dasharray:none;stroke-opacity:1"
                 d="M 344.387,867.82 97.66,403.391 605.629,809.766" /></g></g></g></g></g><g
       id="g140"><g
         id="g142" /><g
         id="g156"><g
           style="opacity:0.7"
           id="g154"
           clip-path="url(#clipPath146)"><g
             id="g152"><g
               id="g150"><path
                 inkscape:connector-curvature="0"
                 id="path148"
                 style="fill:none;stroke:#edbf53;stroke-width:2.83464599;stroke-linecap:butt;stroke-linejoin:miter;stroke-miterlimit:4;stroke-dasharray:none;stroke-opacity:1"
                 d="m 97.66,403.391 667.617,174.16" /></g></g></g></g></g><g
       id="g158"><g
         id="g160" /><g
         id="g182"><g
           style="opacity:0.7"
           id="g180"
           clip-path="url(#clipPath164)"><g
             id="g178"><g
               id="g168"><path
                 inkscape:connector-curvature="0"
                 id="path166"
                 style="fill:none;stroke:#edbf53;stroke-width:2.83464599;stroke-linecap:butt;stroke-linejoin:miter;stroke-miterlimit:4;stroke-dasharray:none;stroke-opacity:1"
                 d="M 765.277,301.797 242.793,185.691 97.66,403.391" /></g><g
               id="g172"><path
                 inkscape:connector-curvature="0"
                 id="path170"
                 style="fill:none;stroke:#edbf53;stroke-width:2.83464599;stroke-linecap:butt;stroke-linejoin:miter;stroke-miterlimit:4;stroke-dasharray:none;stroke-opacity:1"
                 d="M 97.66,650.121 242.793,185.691 344.387,867.82" /></g><g
               id="g176"><path
                 inkscape:connector-curvature="0"
                 id="path174"
                 style="fill:none;stroke:#edbf53;stroke-width:2.83464599;stroke-linecap:butt;stroke-linejoin:miter;stroke-miterlimit:4;stroke-dasharray:none;stroke-opacity:1"
                 d="M 605.629,809.766 242.793,185.691 765.277,577.551" /></g></g></g></g></g><g
       id="g184"><g
         id="g186" /><g
         id="g212"><g
           style="opacity:0.7"
           id="g210"
           clip-path="url(#clipPath190)"><g
             id="g208"><g
               id="g194"><path
                 inkscape:connector-curvature="0"
                 id="path192"
                 style="fill:none;stroke:#edbf53;stroke-width:2.83464599;stroke-linecap:butt;stroke-linejoin:miter;stroke-miterlimit:4;stroke-dasharray:none;stroke-opacity:1"
                 d="M 242.793,185.691 504.035,105.867 90.402,403.391" /></g><g
               id="g198"><path
                 inkscape:connector-curvature="0"
                 id="path196"
                 style="fill:none;stroke:#edbf53;stroke-width:2.83464599;stroke-linecap:butt;stroke-linejoin:miter;stroke-miterlimit:4;stroke-dasharray:none;stroke-opacity:1"
                 d="M 97.66,642.863 504.035,105.867 351.645,867.82" /></g><g
               id="g202"><path
                 inkscape:connector-curvature="0"
                 id="path200"
                 style="fill:none;stroke:#edbf53;stroke-width:2.83464599;stroke-linecap:butt;stroke-linejoin:miter;stroke-miterlimit:4;stroke-dasharray:none;stroke-opacity:1"
                 d="m 504.035,105.867 261.242,195.93" /></g><g
               id="g206"><path
                 inkscape:connector-curvature="0"
                 id="path204"
                 style="fill:none;stroke:#edbf53;stroke-width:2.83464599;stroke-linecap:butt;stroke-linejoin:miter;stroke-miterlimit:4;stroke-dasharray:none;stroke-opacity:1"
                 d="M 772.531,584.809 504.035,105.867 598.371,809.766" /></g></g></g></g></g><g
       id="g214"><g
         id="g216" /><g
         id="g230"><g
           style="opacity:0.7"
           id="g228"
           clip-path="url(#clipPath220)"><g
             id="g226"><g
               id="g224"><path
                 inkscape:connector-curvature="0"
                 id="path222"
                 style="fill:none;stroke:#edbf53;stroke-width:2.83464599;stroke-linecap:butt;stroke-linejoin:miter;stroke-miterlimit:4;stroke-dasharray:none;stroke-opacity:1"
                 d="M 765.277,577.551 V 301.797" /></g></g></g></g></g><g
       id="g232"><path
         inkscape:connector-curvature="0"
         id="path234"
         style="fill:none;stroke:#000000;stroke-width:5.66929102;stroke-linecap:butt;stroke-linejoin:miter;stroke-miterlimit:4;stroke-dasharray:none;stroke-opacity:1"
         d="m 428.008,946.391 c 0,-920.348 0,-920.348 0,-920.348" /></g><g
       transform="rotate(90)"
       id="g236"><path
         inkscape:connector-curvature="0"
         id="path238"
         style="fill:#000000;fill-opacity:1;fill-rule:evenodd;stroke:#000000;stroke-width:2.12598395;stroke-linecap:butt;stroke-linejoin:round;stroke-miterlimit:4;stroke-dasharray:none;stroke-opacity:1"
         d="m 55.699,-414.289 -37.164,-13.668 37.164,-13.664 c -5.937,8.066 -5.902,19.109 0,27.332 z" /></g><text
       id="text244"
       style="font-variant:normal;font-weight:bold;font-size:40px;font-family:'DejaVu Sans';-inkscape-font-specification:DejaVuSans-Bold;writing-mode:lr-tb;fill:#000000;fill-opacity:1;fill-rule:nonzero;stroke:none"
       x="858.62988"
       y="524.43396"><tspan
         id="tspan240"
         y="524.43396"
         x="858.62988">X</tspan><tspan
         id="tspan242"
         y="29.160126"
         x="438.95074">Y</tspan></text>
<g
       id="g246"><path
         inkscape:connector-curvature="0"
         id="path248"
         style="fill:none;stroke:#000000;stroke-width:5.66929102;stroke-linecap:butt;stroke-linejoin:miter;stroke-miterlimit:4;stroke-dasharray:none;stroke-opacity:1"
         d="m 6.531,487.398 c 845.824,0 845.824,0 845.824,0" /></g><g
       transform="scale(-1)"
       id="g250"><path
         inkscape:connector-curvature="0"
         id="path252"
         style="fill:#000000;fill-opacity:1;fill-rule:evenodd;stroke:#000000;stroke-width:2.12598395;stroke-linecap:butt;stroke-linejoin:round;stroke-miterlimit:4;stroke-dasharray:none;stroke-opacity:1"
         d="m -822.699,-473.68 -37.164,-13.664 37.164,-13.668 c -5.938,8.071 -5.903,19.11 0,27.332 z" /></g><g
       id="g254"><path
         inkscape:connector-curvature="0"
         id="path256"
         style="fill:none;stroke:#17f000;stroke-width:7.08661413;stroke-linecap:butt;stroke-linejoin:miter;stroke-miterlimit:4;stroke-dasharray:none;stroke-opacity:1"
         d="M 351.645,860.562 424.211,722.688" /></g><g
       id="g258"><path
         inkscape:connector-curvature="0"
         id="path260"
         style="fill:none;stroke:#17f000;stroke-width:7.08661413;stroke-linecap:butt;stroke-linejoin:miter;stroke-miterlimit:4;stroke-dasharray:none;stroke-opacity:1"
         d="m 98.773,642.914 158.536,7.207" /></g><g
       id="g262"><path
         inkscape:connector-curvature="0"
         id="path264"
         style="fill:none;stroke:#17f000;stroke-width:7.08661413;stroke-linecap:butt;stroke-linejoin:miter;stroke-miterlimit:4;stroke-dasharray:none;stroke-opacity:1"
         d="M 91.348,404.266 194.727,487.84" /></g><g
       id="g266"><path
         inkscape:connector-curvature="0"
         id="path268"
         style="fill:none;stroke:#17f000;stroke-width:7.08661413;stroke-linecap:butt;stroke-linejoin:miter;stroke-miterlimit:4;stroke-dasharray:none;stroke-opacity:1"
         d="M 239.84,183.648 259.43,327.68" /></g><g
       id="g270"><path
         inkscape:connector-curvature="0"
         id="path272"
         style="fill:none;stroke:#17f000;stroke-width:7.08661413;stroke-linecap:butt;stroke-linejoin:miter;stroke-miterlimit:4;stroke-dasharray:none;stroke-opacity:1"
         d="M 502.887,107.281 427.012,256.613" /></g><g
       id="g274"><path
         inkscape:connector-curvature="0"
         id="path276"
         style="fill:none;stroke:#17f000;stroke-width:7.08661413;stroke-linecap:butt;stroke-linejoin:miter;stroke-miterlimit:4;stroke-dasharray:none;stroke-opacity:1"
         d="M 764.867,303.504 600.961,330.859" /></g><g
       id="g278"><path
         inkscape:connector-curvature="0"
         id="path280"
         style="fill:none;stroke:#17f000;stroke-width:7.08661413;stroke-linecap:butt;stroke-linejoin:miter;stroke-miterlimit:4;stroke-dasharray:none;stroke-opacity:1"
         d="M 770.172,584.578 662.48,487.84" /></g><g
       id="g282"><path
         inkscape:connector-curvature="0"
         id="path284"
         style="fill:none;stroke:#17f000;stroke-width:7.08661413;stroke-linecap:butt;stroke-linejoin:miter;stroke-miterlimit:4;stroke-dasharray:none;stroke-opacity:1"
         d="m 600.465,807.316 -6.93,-149.773" /></g><g
       id="g286"><path
         inkscape:connector-curvature="0"
         id="path288"
         style="fill:none;stroke:#000000;stroke-width:7.08661413;stroke-linecap:butt;stroke-linejoin:miter;stroke-miterlimit:4;stroke-dasharray:none;stroke-opacity:1"
         d="m 661.867,483.117 c 3.055,129.121 -99.14,236.27 -228.258,239.324 -129.117,3.055 -236.269,-99.136 -239.328,-228.253 -3.058,-129.122 99.133,-236.27 228.25,-239.333 129.121,-3.058 236.274,99.129 239.336,228.247" /></g><g
       id="g290"><path
         inkscape:connector-curvature="0"
         id="path292"
         style="fill:#969696;fill-opacity:1;fill-rule:nonzero;stroke:#000000;stroke-width:7.08661413;stroke-linecap:butt;stroke-linejoin:miter;stroke-miterlimit:4;stroke-dasharray:none;stroke-opacity:1"
         d="m 441.207,255.801 c 0,8.015 -6.496,14.511 -14.512,14.511 -8.015,0 -14.515,-6.496 -14.515,-14.511 0,-8.016 6.5,-14.512 14.515,-14.512 8.016,0 14.512,6.496 14.512,14.512 z" /></g><g
       id="g294"><path
         inkscape:connector-curvature="0"
         id="path296"
         style="fill:#969696;fill-opacity:1;fill-rule:nonzero;stroke:#000000;stroke-width:7.08661413;stroke-linecap:butt;stroke-linejoin:miter;stroke-miterlimit:4;stroke-dasharray:none;stroke-opacity:1"
         d="m 677.555,487.023 c 0,8.016 -6.5,14.516 -14.516,14.516 -8.016,0 -14.512,-6.5 -14.512,-14.516 0,-8.015 6.496,-14.511 14.512,-14.511 8.016,0 14.516,6.496 14.516,14.511 z" /></g><g
       id="g298"><path
         inkscape:connector-curvature="0"
         id="path300"
         style="fill:#969696;fill-opacity:1;fill-rule:nonzero;stroke:#000000;stroke-width:7.08661413;stroke-linecap:butt;stroke-linejoin:miter;stroke-miterlimit:4;stroke-dasharray:none;stroke-opacity:1"
         d="m 441.207,722.492 c 0,8.016 -6.496,14.512 -14.512,14.512 -8.015,0 -14.515,-6.496 -14.515,-14.512 0,-8.015 6.5,-14.515 14.515,-14.515 8.016,0 14.512,6.5 14.512,14.515 z" /></g><g
       id="g302"><path
         inkscape:connector-curvature="0"
         id="path304"
         style="fill:#969696;fill-opacity:1;fill-rule:nonzero;stroke:#000000;stroke-width:7.08661413;stroke-linecap:butt;stroke-linejoin:miter;stroke-miterlimit:4;stroke-dasharray:none;stroke-opacity:1"
         d="m 208.484,487.023 c 0,8.016 -6.5,14.516 -14.515,14.516 -8.016,0 -14.512,-6.5 -14.512,-14.516 0,-8.015 6.496,-14.511 14.512,-14.511 8.015,0 14.515,6.496 14.515,14.511 z" /></g><g
       id="g306"><path
         inkscape:connector-curvature="0"
         id="path308"
         style="fill:#969696;fill-opacity:1;fill-rule:nonzero;stroke:#000000;stroke-width:7.08661413;stroke-linecap:butt;stroke-linejoin:miter;stroke-miterlimit:4;stroke-dasharray:none;stroke-opacity:1"
         d="m 274.504,327.926 c 0,8.015 -6.5,14.512 -14.516,14.512 -8.015,0 -14.511,-6.497 -14.511,-14.512 0,-8.016 6.496,-14.512 14.511,-14.512 8.016,0 14.516,6.496 14.516,14.512 z" /></g><g
       id="g310"><path
         inkscape:connector-curvature="0"
         id="path312"
         style="fill:#969696;fill-opacity:1;fill-rule:nonzero;stroke:#000000;stroke-width:7.08661413;stroke-linecap:butt;stroke-linejoin:miter;stroke-miterlimit:4;stroke-dasharray:none;stroke-opacity:1"
         d="m 614.535,330.668 c 0,8.016 -6.5,14.516 -14.515,14.516 -8.016,0 -14.512,-6.5 -14.512,-14.516 0,-8.016 6.496,-14.512 14.512,-14.512 8.015,0 14.515,6.496 14.515,14.512 z" /></g><g
       id="g314"><path
         inkscape:connector-curvature="0"
         id="path316"
         style="fill:#969696;fill-opacity:1;fill-rule:nonzero;stroke:#000000;stroke-width:7.08661413;stroke-linecap:butt;stroke-linejoin:miter;stroke-miterlimit:4;stroke-dasharray:none;stroke-opacity:1"
         d="m 271.246,649.125 c 0,8.016 -6.5,14.512 -14.516,14.512 -8.015,0 -14.511,-6.496 -14.511,-14.512 0,-8.016 6.496,-14.516 14.511,-14.516 8.016,0 14.516,6.5 14.516,14.516 z" /></g><g
       id="g318"><path
         inkscape:connector-curvature="0"
         id="path320"
         style="fill:#969696;fill-opacity:1;fill-rule:nonzero;stroke:#000000;stroke-width:7.08661413;stroke-linecap:butt;stroke-linejoin:miter;stroke-miterlimit:4;stroke-dasharray:none;stroke-opacity:1"
         d="m 607.551,656.367 c 0,8.016 -6.5,14.512 -14.516,14.512 -8.015,0 -14.512,-6.496 -14.512,-14.512 0,-8.015 6.497,-14.515 14.512,-14.515 8.016,0 14.516,6.5 14.516,14.515 z" /></g><g
       transform="matrix(1,0.546947,-0.546947,1,0,0)"
       id="g322"><path
         inkscape:connector-curvature="0"
         id="path324"
         style="fill:none;stroke:#000000;stroke-width:6.21740294;stroke-linecap:butt;stroke-linejoin:miter;stroke-miterlimit:4;stroke-dasharray:none;stroke-opacity:1"
         d="m 844.968,191.559 c -10e-4,91.18 -32.199,178.626 -89.51,243.101 C 698.148,499.134 620.417,535.356 539.37,535.356 458.32,535.358 380.59,499.134 323.279,434.66 265.968,370.186 233.773,282.74 233.772,191.557 c 0,-91.18 32.196,-178.625 89.506,-243.099 57.31,-64.475 135.041,-100.697 216.093,-100.696 81.047,0 158.778,36.219 216.089,100.694 57.308,64.476 89.508,151.923 89.508,243.103 z" /></g><g
       id="g326"><path
         inkscape:connector-curvature="0"
         id="path328"
         style="fill:#edbf53;fill-opacity:1;fill-rule:nonzero;stroke:#000000;stroke-width:7.08661413;stroke-linecap:butt;stroke-linejoin:miter;stroke-miterlimit:4;stroke-dasharray:none;stroke-opacity:1"
         d="m 779.117,302.469 c 0,8.015 -6.496,14.515 -14.512,14.515 -8.015,0 -14.511,-6.5 -14.511,-14.515 0,-8.016 6.496,-14.512 14.511,-14.512 8.016,0 14.512,6.496 14.512,14.512 z" /></g><g
       id="g330"><path
         inkscape:connector-curvature="0"
         id="path332"
         style="fill:#edbf53;fill-opacity:1;fill-rule:nonzero;stroke:#000000;stroke-width:7.08661413;stroke-linecap:butt;stroke-linejoin:miter;stroke-miterlimit:4;stroke-dasharray:none;stroke-opacity:1"
         d="m 519.695,107.309 c 0,8.015 -6.496,14.511 -14.511,14.511 -8.016,0 -14.516,-6.496 -14.516,-14.511 0,-8.016 6.5,-14.512 14.516,-14.512 8.015,0 14.511,6.496 14.511,14.512 z" /></g><g
       id="g334"><path
         inkscape:connector-curvature="0"
         id="path336"
         style="fill:#edbf53;fill-opacity:1;fill-rule:nonzero;stroke:#000000;stroke-width:7.08661413;stroke-linecap:butt;stroke-linejoin:miter;stroke-miterlimit:4;stroke-dasharray:none;stroke-opacity:1"
         d="m 785.484,584.605 c 0,8.016 -6.5,14.512 -14.515,14.512 -8.016,0 -14.512,-6.496 -14.512,-14.512 0,-8.015 6.496,-14.511 14.512,-14.511 8.015,0 14.515,6.496 14.515,14.511 z" /></g><g
       id="g338"><path
         inkscape:connector-curvature="0"
         id="path340"
         style="fill:#edbf53;fill-opacity:1;fill-rule:nonzero;stroke:#000000;stroke-width:7.08661413;stroke-linecap:butt;stroke-linejoin:miter;stroke-miterlimit:4;stroke-dasharray:none;stroke-opacity:1"
         d="m 614.535,805.223 c 0,8.015 -6.5,14.511 -14.515,14.511 -8.016,0 -14.512,-6.496 -14.512,-14.511 0,-8.016 6.496,-14.512 14.512,-14.512 8.015,0 14.515,6.496 14.515,14.512 z" /></g><g
       id="g342"><path
         inkscape:connector-curvature="0"
         id="path344"
         style="fill:#edbf53;fill-opacity:1;fill-rule:nonzero;stroke:#000000;stroke-width:7.08661413;stroke-linecap:butt;stroke-linejoin:miter;stroke-miterlimit:4;stroke-dasharray:none;stroke-opacity:1"
         d="m 364.84,864.621 c 0,8.016 -6.496,14.512 -14.512,14.512 -8.016,0 -14.516,-6.496 -14.516,-14.512 0,-8.016 6.5,-14.516 14.516,-14.516 8.016,0 14.512,6.5 14.512,14.516 z" /></g><g
       id="g346"><path
         inkscape:connector-curvature="0"
         id="path348"
         style="fill:#edbf53;fill-opacity:1;fill-rule:nonzero;stroke:#000000;stroke-width:7.08661413;stroke-linecap:butt;stroke-linejoin:miter;stroke-miterlimit:4;stroke-dasharray:none;stroke-opacity:1"
         d="m 112.402,644.004 c 0,8.016 -6.496,14.512 -14.511,14.512 -8.016,0 -14.516,-6.496 -14.516,-14.512 0,-8.016 6.5,-14.516 14.516,-14.516 8.015,0 14.511,6.5 14.511,14.516 z" /></g><g
       id="g350"><path
         inkscape:connector-curvature="0"
         id="path352"
         style="fill:#edbf53;fill-opacity:1;fill-rule:nonzero;stroke:#000000;stroke-width:7.08661413;stroke-linecap:butt;stroke-linejoin:miter;stroke-miterlimit:4;stroke-dasharray:none;stroke-opacity:1"
         d="m 108.16,404.293 c 0,8.016 -6.496,14.516 -14.512,14.516 -8.015,0 -14.515,-6.5 -14.515,-14.516 0,-8.016 6.5,-14.512 14.515,-14.512 8.016,0 14.512,6.496 14.512,14.512 z" /></g><g
       id="g354"><path
         inkscape:connector-curvature="0"
         id="path356"
         style="fill:#edbf53;fill-opacity:1;fill-rule:nonzero;stroke:#000000;stroke-width:7.08661413;stroke-linecap:butt;stroke-linejoin:miter;stroke-miterlimit:4;stroke-dasharray:none;stroke-opacity:1"
         d="m 254.531,183.676 c 0,8.015 -6.496,14.512 -14.511,14.512 -8.016,0 -14.516,-6.497 -14.516,-14.512 0,-8.016 6.5,-14.512 14.516,-14.512 8.015,0 14.511,6.496 14.511,14.512 z" /></g><text
       id="text360"
       style="font-variant:normal;font-weight:bold;font-size:40px;font-family:'DejaVu Sans';-inkscape-font-specification:DejaVuSans-Bold;writing-mode:lr-tb;fill:#000000;fill-opacity:1;fill-rule:nonzero;stroke:none"
       x="540.62988"
       y="275.43396"><tspan
         id="tspan358"
         y="275.43396"
         x="540.62988">1</tspan></text>
<text
       id="text364"
       style="font-variant:normal;font-weight:bold;font-size:40px;font-family:'DejaVu Sans';-inkscape-font-specification:DejaVuSans-Bold;writing-mode:lr-tb;fill:#000000;fill-opacity:1;fill-rule:nonzero;stroke:none"
       x="650.18201"
       y="133.63771"><tspan
         id="tspan362"
         y="133.63771"
         x="650.18201">║</tspan></text>
<text
       id="text368"
       style="font-variant:normal;font-weight:bold;font-size:40px;font-family:'DejaVu Sans';-inkscape-font-specification:DejaVuSans-Bold;writing-mode:lr-tb;fill:#000000;fill-opacity:1;fill-rule:nonzero;stroke:none"
       x="674.26196"
       y="133.63771"><tspan
         id="tspan366"
         y="133.63771"
         x="674.26196">r</tspan></text>
<text
       id="text372"
       style="font-variant:normal;font-weight:bold;font-size:40px;font-family:'DejaVu Sans';-inkscape-font-specification:DejaVuSans-Bold;writing-mode:lr-tb;fill:#000000;fill-opacity:1;fill-rule:nonzero;stroke:none"
       x="693.98199"
       y="133.63771"><tspan
         id="tspan370"
         y="133.63771"
         x="693.98199">║</tspan></text>
<text
       id="text376"
       style="font-variant:normal;font-weight:normal;font-size:29.99999809px;font-family:'DejaVu Sans';-inkscape-font-specification:DejaVuSans;writing-mode:lr-tb;fill:#000000;fill-opacity:1;fill-rule:nonzero;stroke:none"
       x="721.7757"
       y="158.16447"><tspan
         id="tspan374"
         y="158.16447"
         x="721.7757">F</tspan></text>
<g
       id="g378"><path
         inkscape:connector-curvature="0"
         id="path380"
         style="fill:#edbf53;fill-opacity:1;fill-rule:nonzero;stroke:#000000;stroke-width:7.08661413;stroke-linecap:butt;stroke-linejoin:miter;stroke-miterlimit:4;stroke-dasharray:none;stroke-opacity:1"
         d="m 32.57,1003.309 c 0,8.015 -6.5,14.511 -14.511,14.511 -8.016,0 -14.516,-6.496 -14.516,-14.511 0,-8.016 6.5,-14.516 14.516,-14.516 8.011,0 14.511,6.5 14.511,14.516 z" /></g><g
       id="g382"><path
         inkscape:connector-curvature="0"
         id="path384"
         style="fill:#969696;fill-opacity:1;fill-rule:nonzero;stroke:#000000;stroke-width:7.08661413;stroke-linecap:butt;stroke-linejoin:miter;stroke-miterlimit:4;stroke-dasharray:none;stroke-opacity:1"
         d="m 33.043,1074.723 c 0,8.015 -6.5,14.515 -14.516,14.515 -8.015,0 -14.511,-6.5 -14.511,-14.515 0,-8.016 6.496,-14.512 14.511,-14.512 8.016,0 14.516,6.496 14.516,14.512 z" /></g><g
       id="g386"><path
         inkscape:connector-curvature="0"
         id="path388"
         style="fill:none;stroke:#edbf53;stroke-width:11.33858299;stroke-linecap:butt;stroke-linejoin:miter;stroke-miterlimit:4;stroke-dasharray:none;stroke-opacity:1"
         d="m 399.969,1001.445 h 72.566" /></g><g
       id="g390"><path
         inkscape:connector-curvature="0"
         id="path392"
         style="fill:none;stroke:#17f000;stroke-width:11.33858299;stroke-linecap:butt;stroke-linejoin:miter;stroke-miterlimit:4;stroke-dasharray:none;stroke-opacity:1"
         d="m 399.969,1074.012 h 72.566" /></g><text
       id="text398"
       style="font-variant:normal;font-weight:normal;font-size:40px;font-family:'DejaVu Sans';-inkscape-font-specification:DejaVuSans;writing-mode:lr-tb;fill:#000000;fill-opacity:1;fill-rule:nonzero;stroke:none"
       x="485.06204"
       y="1088.5269"><tspan
         id="tspan394"
         sodipodi:role="line"
         y="1088.5269"
         x="485.06204 509.34204 533.78204 549.54205 565.14203 589.74207 612.90204 628.58203 654.02203 669.78204 695.14203 719.74207 752.42206 763.50208 785.46204 810.78204">Korrekturgewicht</tspan><tspan
         id="tspan396"
         sodipodi:role="line"
         y="1015.9602"
         x="485.06204 512.42206 537.74207 553.42206 577.86206 599.66205 624.10205 639.86206 655.50208 680.10205 691.18207 715.66205 731.34204 742.42206 766.86206 792.18207 804.86206 829.14203 853.58203">Autokorrelation Koe</tspan></text>
<text
       id="text402"
       style="font-variant:normal;font-weight:normal;font-size:40px;font-family:'DejaVu Sans';-inkscape-font-specification:DejaVuSans;writing-mode:lr-tb;fill:#000000;fill-opacity:1;fill-rule:nonzero;stroke:none"
       x="878.18207"
       y="1015.9602"><tspan
         id="tspan400"
         y="1015.9602"
         x="878.18207">ﬀ</tspan></text>
<text
       id="text410"
       style="font-variant:normal;font-weight:normal;font-size:40px;font-family:'DejaVu Sans';-inkscape-font-specification:DejaVuSans;writing-mode:lr-tb;fill:#000000;fill-opacity:1;fill-rule:nonzero;stroke:none"
       x="905.70203"
       y="1015.9602"><tspan
         id="tspan404"
         y="1015.9602"
         x="905.70203">.</tspan><tspan
         id="tspan406"
         sodipodi:role="line"
         y="1088.5269"
         x="51.561478 77.561478 102.16151 127.5215 143.12148 167.72151 188.5215 209.32149 220.4015 244.84151 270.1615 290.96149 311.92151 323.00146 347.6015">Regressionsziel</tspan><tspan
         id="tspan408"
         sodipodi:role="line"
         y="1015.9602"
         x="51.561478 70.121475 86.561478 111.04152 122.12148 147.44148 158.5215 183.84151 209.20149 230.12148 255.48152 279.96149 295.64148 320.24146">Trainingsdaten</tspan></text>
</g></svg>